<svg width="518" height="598" viewBox="0 0 518 598" fill="none" xmlns="http://www.w3.org/2000/svg">
<path d="M218 251H368C450.843 251 518 318.157 518 401V491H368C285.157 491 218 423.843 218 341V251Z" fill="#38ADAE"/>
<path d="M190 251H100C44.7715 251 0 295.772 0 351V441H90C145.228 441 190 396.228 190 341V251Z" fill="#9FC1C1"/>
<path d="M408 45H318C262.772 45 218 89.7715 218 145V235H308C363.228 235 408 190.228 408 135V45Z" fill="#F18CAA"/>
<path d="M408 45L218 235V145C218 89.7715 262.772 45 318 45H408Z" fill="#F07197"/>
<path d="M0 441L190 251L190 341C190 396.228 145.228 441 90 441H0Z" fill="#86B3B3"/>
<path d="M218 251H368C450.843 251 518 318.157 518 401V491L218 251Z" fill="#219E9F"/>
<path d="M72 457H190V521C190 553.585 163.585 580 131 580C98.4152 580 72 553.585 72 521V457Z" fill="#F18CAA"/>
<path d="M59.5 478.5H170.5V539C170.5 569.652 145.652 594.5 115 594.5C84.3482 594.5 59.5 569.652 59.5 539V478.5Z" stroke="#DE5C82" stroke-width="7"/>
<path d="M40 185H190V75C190 33.5786 156.421 0 115 0C73.5786 0 40 33.5786 40 75V185Z" fill="#CAEBEB"/>
<path d="M27.5 209.5H170.5V103C170.5 63.5116 138.488 31.5 99 31.5C59.5116 31.5 27.5 63.5116 27.5 103V209.5Z" stroke="white" stroke-width="7"/>
</svg>
