<svg width="140" height="140" viewBox="0 0 140 140" fill="none" xmlns="http://www.w3.org/2000/svg">
<circle cx="70" cy="70" r="70" fill="url(#paint0_linear_316_6)"/>
<path d="M98.773 41.4144C97.9554 40.5963 96.884 40.1875 95.8125 40.1875C94.741 40.1875 93.6695 40.5963 92.8519 41.4144L66.22 62.431C65.707 62.756 65.2139 63.1303 64.7664 63.5778C61.4949 66.8472 61.4949 72.1491 64.7664 75.4206C66.4021 77.0558 68.5451 77.874 70.688 77.874C72.831 77.874 74.9739 77.0558 76.6097 75.4206C77.0572 74.9731 77.4315 74.48 77.7565 73.967L98.7736 47.3361C100.409 45.6998 100.409 43.0502 98.773 41.4144ZM95.4853 44.7409L74.4683 71.3718C74.3803 71.4864 74.2966 71.6026 74.2186 71.7257C74.0286 72.024 73.8423 72.2653 73.646 72.4595C72.8566 73.251 71.8056 73.6865 70.6875 73.6865C69.5694 73.6865 68.5178 73.251 67.7269 72.4595C66.936 71.6681 66.5 70.6154 66.5 69.499C66.5 68.3804 66.9355 67.3293 67.7269 66.5384C67.9211 66.3442 68.1624 66.1579 68.4608 65.9678C68.5833 65.8904 68.7 65.8066 68.8146 65.7187L95.4466 44.7021C95.5754 44.6001 95.6942 44.4917 95.8083 44.375H95.8125C95.6958 44.4912 95.5874 44.6121 95.4853 44.7409Z" fill="#CAEBEB"/>
<path d="M55.835 73.6886C54.2134 73.6886 52.5902 74.0566 51.0973 74.7889C50.8011 74.9218 50.5085 75.0815 50.218 75.2573C50.0421 75.3615 49.8662 75.4657 49.6945 75.5824C49.1815 75.9383 48.6722 76.3367 48.1813 76.8318C47.6824 77.3343 47.2794 77.8578 46.9219 78.3875C46.8339 78.5204 46.7544 78.6534 46.6722 78.7864C46.3838 79.2548 46.1325 79.7312 45.9237 80.2153C45.8849 80.3137 45.8336 80.4074 45.7949 80.5079C43.4379 86.4406 49.5228 86.8049 33 97.2606C37.3513 98.3708 41.1949 98.8125 44.5544 98.8125C57.6057 98.8125 63.3552 92.1492 63.3552 92.1492C67.5469 87.9172 67.549 81.0576 63.3573 76.8277C61.2777 74.7271 58.5584 73.6886 55.835 73.6886ZM60.3805 89.2033C60.3397 89.2441 60.2601 89.33 60.2229 89.3729C60.0266 89.5854 55.3052 94.625 44.5544 94.625C44.3539 94.625 44.1555 94.623 43.9535 94.6188C48.2556 90.9348 49.2512 88.2177 49.3082 84.4819C49.3224 83.5596 49.3307 82.9482 49.6579 82.1222C49.6762 82.0856 49.7542 81.9076 49.7704 81.871C49.9013 81.5684 50.0588 81.2716 50.2918 80.8937L50.3917 80.732C50.6555 80.3415 50.8969 80.0389 51.1544 79.7793C51.4077 79.526 51.692 79.2925 52.0458 79.0476C52.1458 78.9779 52.2505 78.9188 52.3871 78.8392C52.5263 78.7534 52.6671 78.6738 52.9414 78.5487C53.8391 78.1069 54.8389 77.8761 55.8344 77.8761C57.5539 77.8761 59.1693 78.5508 60.3821 79.7736C62.9563 82.3719 62.9563 86.6023 60.3805 89.2033Z" fill="#CAEBEB"/>
<defs>
<linearGradient id="paint0_linear_316_6" x1="70" y1="0" x2="70" y2="140" gradientUnits="userSpaceOnUse">
<stop stop-color="#38ADAE"/>
<stop offset="1" stop-color="#F18CAA"/>
</linearGradient>
</defs>
</svg>
